<svg width="20" height="20" viewBox="0 0 20 20" fill="none" xmlns="http://www.w3.org/2000/svg">
<path fill-rule="evenodd" clip-rule="evenodd" d="M9.66184 6.25C8.66132 6.25 7.85025 7.08947 7.85025 8.125C7.85025 9.16053 8.66132 10 9.66184 10C10.6624 10 11.4734 9.16053 11.4734 8.125C11.4734 7.08947 10.6624 6.25 9.66184 6.25ZM6.64252 8.125C6.64252 6.39911 7.99431 5 9.66184 5C11.3294 5 12.6812 6.39911 12.6812 8.125C12.6812 9.85089 11.3294 11.25 9.66184 11.25C7.99431 11.25 6.64252 9.85089 6.64252 8.125Z" fill="white"/>
<path fill-rule="evenodd" clip-rule="evenodd" d="M9.66186 2.5C8.22047 2.5 6.83811 3.09263 5.81889 4.14752C4.79967 5.20242 4.22708 6.63316 4.22708 8.125C4.22708 10.7125 5.62312 13.0685 7.09822 14.8243C7.82839 15.6933 8.56011 16.3941 9.10941 16.8773C9.32665 17.0684 9.51466 17.2249 9.66186 17.3437C9.80906 17.2249 9.99707 17.0684 10.2143 16.8773C10.7636 16.3941 11.4953 15.6933 12.2255 14.8243C13.7006 13.0685 15.0966 10.7125 15.0966 8.125C15.0966 6.63316 14.5241 5.20242 13.5048 4.14752C12.4856 3.09263 11.1033 2.5 9.66186 2.5ZM9.66186 18.125C9.31557 18.637 9.3154 18.6369 9.31521 18.6368L9.31471 18.6364L9.31329 18.6354L9.30883 18.6321L9.29347 18.6208C9.28042 18.6112 9.26181 18.5973 9.238 18.5793C9.19038 18.5433 9.12196 18.4908 9.0357 18.4226C8.86323 18.2862 8.61912 18.0865 8.32723 17.8297C7.74429 17.3169 6.96635 16.5723 6.18686 15.6445C4.64263 13.8065 3.01935 11.1625 3.01935 8.125C3.01935 6.30164 3.71918 4.55295 4.96489 3.26364C6.21061 1.97433 7.90016 1.25 9.66186 1.25C11.4236 1.25 13.1131 1.97433 14.3588 3.26364C15.6045 4.55295 16.3044 6.30164 16.3044 8.125C16.3044 11.1625 14.6811 13.8065 13.1369 15.6445C12.3574 16.5723 11.5794 17.3169 10.9965 17.8297C10.7046 18.0865 10.4605 18.2862 10.288 18.4226C10.2018 18.4908 10.1333 18.5433 10.0857 18.5793C10.0619 18.5973 10.0433 18.6112 10.0302 18.6208L10.0149 18.6321L10.0104 18.6354L10.009 18.6364L10.0085 18.6368C10.0083 18.6369 10.0082 18.637 9.66186 18.125ZM9.66186 18.125L10.0082 18.637C9.80023 18.7877 9.52349 18.7877 9.31557 18.637L9.66186 18.125Z" fill="white"/>
</svg>
