<svg width="103" height="60" viewBox="0 0 103 60" fill="none" xmlns="http://www.w3.org/2000/svg">
<path d="M59.513 29.8493C59.513 45.4756 46.5573 58.1987 30.5065 58.1987C14.4557 58.1987 1.5 45.4756 1.5 29.8493C1.5 14.2231 14.4557 1.5 30.5065 1.5C46.5573 1.5 59.513 14.2231 59.513 29.8493Z" stroke="black" stroke-width="3"/>
<path d="M39.3753 19.8995C39.3753 24.6501 35.4314 28.5493 30.5065 28.5493C25.5815 28.5493 21.6376 24.6501 21.6376 19.8995C21.6376 15.1489 25.5815 11.2497 30.5065 11.2497C35.4314 11.2497 39.3753 15.1489 39.3753 19.8995Z" stroke="black" stroke-width="2.6"/>
<mask id="path-3-inside-1_382_921" fill="white">
<path fill-rule="evenodd" clip-rule="evenodd" d="M8.82861 50.8513C10.6931 40.7934 19.6895 33.166 30.5066 33.166C41.3236 33.166 50.32 40.7934 52.1845 50.8513C46.6557 56.3145 38.9851 59.6988 30.5066 59.6988C22.0281 59.6988 14.3574 56.3145 8.82861 50.8513Z"/>
</mask>
<path d="M8.82861 50.8513L5.87887 50.3045L5.58907 51.8677L6.71998 52.9852L8.82861 50.8513ZM52.1845 50.8513L54.2931 52.9852L55.4241 51.8677L55.1343 50.3045L52.1845 50.8513ZM11.7784 51.3981C13.3757 42.7814 21.1155 36.166 30.5066 36.166V30.166C18.2635 30.166 8.01057 38.8053 5.87887 50.3045L11.7784 51.3981ZM30.5066 36.166C39.8976 36.166 47.6374 42.7815 49.2348 51.3981L55.1343 50.3045C53.0026 38.8053 42.7496 30.166 30.5066 30.166V36.166ZM50.0759 48.7173C45.0926 53.6415 38.1734 56.6988 30.5066 56.6988V62.6988C39.7967 62.6988 48.2188 58.9875 54.2931 52.9852L50.0759 48.7173ZM30.5066 56.6988C22.8397 56.6988 15.9205 53.6415 10.9372 48.7173L6.71998 52.9852C12.7943 58.9875 21.2164 62.6988 30.5066 62.6988V56.6988Z" fill="black" mask="url(#path-3-inside-1_382_921)"/>
<path d="M90.7626 38.2816L82.2895 27.6223C81.7687 26.967 82.2353 26 83.0723 26H100.019C100.856 26 101.322 26.967 100.801 27.6223L92.3283 38.2816C91.9279 38.7852 91.163 38.7852 90.7626 38.2816Z" fill="black"/>
</svg>
