<svg width="25" height="28" viewBox="0 0 25 28" fill="none" xmlns="http://www.w3.org/2000/svg">
<path d="M19.6787 16.8894C18.8665 16.6922 18.224 17.1177 17.6551 17.4893C17.0725 17.8722 15.9646 18.8863 15.3296 18.6267C12.0783 17.1163 9.02043 13.9053 7.69673 10.2221C7.46342 9.49027 8.35796 8.23226 8.69481 7.5671C9.02168 6.92321 9.39097 6.19138 9.22254 5.26809C9.07034 4.43841 7.10162 1.61181 6.40546 0.838851C5.94634 0.328276 5.47599 0.0474591 4.99317 0.00207467C3.17791 -0.0858577 1.15055 2.64714 0.794985 3.30096C-0.0958039 4.69511 -0.0908135 6.5502 0.809956 8.79957C2.98079 14.8414 11.1913 23.9594 16.5659 26.5009C17.5578 27.0243 18.4648 27.2867 19.2795 27.2867C20.0767 27.2867 20.7866 27.0356 21.3967 26.5378C21.857 26.2386 24.3784 23.8374 24.3123 21.7341C24.2724 21.198 24.0241 20.6619 23.5775 20.1429C22.8975 19.35 20.4086 17.0624 19.6787 16.8894" fill="#7848F4"/>
</svg>
