<svg width="58" height="58" viewBox="0 0 58 58" fill="none" xmlns="http://www.w3.org/2000/svg">
<rect x="1.12305" y="1.23584" width="55.6038" height="55.6038" rx="27.8019" fill="white"/>
<rect x="1.12305" y="1.23584" width="55.6038" height="55.6038" rx="27.8019" stroke="#1D1D1D"/>
<path d="M17.3129 17.4267H21.6671L24.5698 14.5239H33.2781L36.1808 17.4267H40.535C41.3048 17.4267 42.0432 17.7325 42.5875 18.2769C43.1319 18.8213 43.4377 19.5596 43.4377 20.3294V37.746C43.4377 38.5158 43.1319 39.2542 42.5875 39.7985C42.0432 40.3429 41.3048 40.6487 40.535 40.6487H17.3129C16.5431 40.6487 15.8047 40.3429 15.2604 39.7985C14.716 39.2542 14.4102 38.5158 14.4102 37.746V20.3294C14.4102 19.5596 14.716 18.8213 15.2604 18.2769C15.8047 17.7325 16.5431 17.4267 17.3129 17.4267ZM28.9239 21.7808C26.9993 21.7808 25.1535 22.5454 23.7925 23.9063C22.4316 25.2672 21.6671 27.1131 21.6671 29.0377C21.6671 30.9624 22.4316 32.8082 23.7925 34.1691C25.1535 35.53 26.9993 36.2946 28.9239 36.2946C30.8486 36.2946 32.6944 35.53 34.0553 34.1691C35.4163 32.8082 36.1808 30.9624 36.1808 29.0377C36.1808 27.1131 35.4163 25.2672 34.0553 23.9063C32.6944 22.5454 30.8486 21.7808 28.9239 21.7808ZM28.9239 24.6836C30.0787 24.6836 31.1862 25.1423 32.0028 25.9589C32.8193 26.7754 33.2781 27.8829 33.2781 29.0377C33.2781 30.1925 32.8193 31.3 32.0028 32.1166C31.1862 32.9331 30.0787 33.3918 28.9239 33.3918C27.7692 33.3918 26.6617 32.9331 25.8451 32.1166C25.0285 31.3 24.5698 30.1925 24.5698 29.0377C24.5698 27.8829 25.0285 26.7754 25.8451 25.9589C26.6617 25.1423 27.7692 24.6836 28.9239 24.6836Z" fill="#1D1D1D"/>
</svg>
