<svg width="25" height="31" viewBox="0 0 25 31" fill="none" xmlns="http://www.w3.org/2000/svg">
<path fill-rule="evenodd" clip-rule="evenodd" d="M0.0117188 13.1798C0.0117188 6.16315 5.47975 0.491852 12.0939 0.491852C18.7267 0.491852 24.1947 6.16315 24.1947 13.1798C24.1947 16.7156 22.9955 19.9982 21.0217 22.7805C18.8443 25.8495 16.1605 28.5234 13.1396 30.6223C12.4482 31.1074 11.8242 31.144 11.0654 30.6223C8.02728 28.5234 5.34348 25.8495 3.18467 22.7805C1.20946 19.9982 0.0117188 16.7156 0.0117188 13.1798ZM8.11185 13.5748C8.11185 15.9254 9.90058 17.7741 12.0938 17.7741C14.2885 17.7741 16.0944 15.9254 16.0944 13.5748C16.0944 11.2425 14.2885 9.30377 12.0938 9.30377C9.90058 9.30377 8.11185 11.2425 8.11185 13.5748Z" fill="#7848F4"/>
</svg>
