<svg width="25" height="26" viewBox="0 0 25 26" fill="none" xmlns="http://www.w3.org/2000/svg">
<path fill-rule="evenodd" clip-rule="evenodd" d="M18.1052 0C19.7187 0 21.2708 0.765556 22.4127 2.13922C23.5557 3.51 24.1946 5.35889 24.1946 7.29444V18.7056C24.1946 22.7356 21.4634 26 18.1052 26H6.21881C2.86068 26 0.130615 22.7356 0.130615 18.7056V7.29444C0.130615 3.26444 2.84864 0 6.21881 0H18.1052ZM20.0197 9.44644L20.1159 9.33089C20.4035 8.912 20.4035 8.30533 20.1027 7.88644C19.9354 7.67122 19.7056 7.53977 19.4662 7.51089C19.2135 7.495 18.9729 7.59755 18.7912 7.79977L13.366 12.9998C12.6681 13.6946 11.6683 13.6946 10.9596 12.9998L5.54518 7.79977C5.17098 7.46755 4.65361 7.51089 4.34198 7.90089C4.01711 8.29089 3.98102 8.912 4.25655 9.34533L4.41417 9.53311L9.88873 14.6609C10.5625 15.2964 11.3795 15.6431 12.235 15.6431C13.088 15.6431 13.9194 15.2964 14.592 14.6609L20.0197 9.44644Z" fill="#7848F4"/>
</svg>
