<svg width="103" height="60" viewBox="0 0 103 60" fill="none" xmlns="http://www.w3.org/2000/svg">
<path d="M59.513 29.8493C59.513 45.4756 46.5573 58.1987 30.5065 58.1987C14.4557 58.1987 1.5 45.4756 1.5 29.8493C1.5 14.2231 14.4557 1.5 30.5065 1.5C46.5573 1.5 59.513 14.2231 59.513 29.8493Z" stroke="black" stroke-width="3"/>
<path d="M39.3753 19.8996C39.3753 24.6502 35.4314 28.5494 30.5065 28.5494C25.5815 28.5494 21.6376 24.6502 21.6376 19.8996C21.6376 15.149 25.5815 11.2498 30.5065 11.2498C35.4314 11.2498 39.3753 15.149 39.3753 19.8996Z" stroke="black" stroke-width="2.6"/>
<mask id="path-3-inside-1_485_844" fill="white">
<path fill-rule="evenodd" clip-rule="evenodd" d="M8.82861 50.8512C10.6931 40.7932 19.6895 33.1659 30.5066 33.1659C41.3236 33.1659 50.32 40.7932 52.1845 50.8512C46.6557 56.3144 38.9851 59.6986 30.5066 59.6986C22.0281 59.6986 14.3574 56.3144 8.82861 50.8512Z"/>
</mask>
<path d="M8.82861 50.8512L5.87887 50.3043L5.58907 51.8676L6.71998 52.9851L8.82861 50.8512ZM52.1845 50.8512L54.2931 52.9851L55.4241 51.8676L55.1343 50.3043L52.1845 50.8512ZM11.7784 51.398C13.3757 42.7813 21.1155 36.1659 30.5066 36.1659V30.1659C18.2635 30.1659 8.01057 38.8051 5.87887 50.3043L11.7784 51.398ZM30.5066 36.1659C39.8976 36.1659 47.6374 42.7813 49.2348 51.398L55.1343 50.3043C53.0026 38.8051 42.7496 30.1659 30.5066 30.1659V36.1659ZM50.0759 48.7172C45.0926 53.6414 38.1734 56.6986 30.5066 56.6986V62.6986C39.7967 62.6986 48.2188 58.9874 54.2931 52.9851L50.0759 48.7172ZM30.5066 56.6986C22.8397 56.6986 15.9205 53.6414 10.9372 48.7172L6.71998 52.9851C12.7943 58.9874 21.2164 62.6986 30.5066 62.6986V56.6986Z" fill="black" mask="url(#path-3-inside-1_485_844)"/>
<path d="M90.7626 38.2816L82.2895 27.6223C81.7687 26.967 82.2353 26 83.0723 26H100.019C100.856 26 101.322 26.967 100.801 27.6223L92.3283 38.2816C91.9279 38.7852 91.163 38.7852 90.7626 38.2816Z" fill="black"/>
</svg>
